<svg xmlns="http://www.w3.org/2000/svg" viewBox="0 0 600 85.87"><path d="M427.82.73v82.19" fill="none" stroke="#fff" stroke-width=".98"/><path d="M1.69 3.24v41.67c0 14.38 16.61 31.15 28.91 38.95 12.3-7.8 28.91-24.57 28.91-38.95V3.24H1.69zM57.8 44.91c0 13.22-15.6 29.26-27.21 36.93C19 74.18 3.39 58.14 3.39 44.91V4.93H57.8v39.98z" fill="#fff"/><path d="M22.92 67.91c-2.44-1.31-5.33-2.21-8.44-2.03.57.68 1.16 1.37 1.77 2.03h6.67zm15.37 0h6.67c.61-.66 1.18-1.34 1.76-2.03-3.11-.2-5.99.72-8.44 2.03h.01zm11.26-23.13h-1.59v19.6c.54-.67 1.08-1.34 1.59-2.04V44.77zm-36.31 0h-1.59v17.57c.51.69 1.05 1.37 1.59 2.04v-19.6z" fill="#fff"/><path d="M30.22 62.74h.77v8.52c2.72-2.7 8.38-7.29 15.26-7.13v-22.4c-1.47-.13-3.75-.3-5.5-.3-6.28 0-8.9 2.48-8.92 2.5 0 0-.72.76-.72 3.47H30.1c0-2.71-.72-3.47-.72-3.47-.02-.02-2.63-2.5-8.92-2.5-1.77 0-4.03.17-5.5.3v22.4c6.88-.16 12.55 4.44 15.26 7.13v-8.52zm-6.91-10.61c0-1.17.95-3.88 3.58-3.88s3.73 2.12 3.73 2.12 1.09-2.12 3.72-2.12 3.58 2.71 3.58 3.88c0 3.81-7.3 7.97-7.3 9.07 0-1.09-7.3-5.25-7.3-9.07h.01z" fill="#fff"/><path d="M55.67 38.76s1.04-1.44 1.04-3.01c0-2.31-2.7-5.81-6.84-5.81-1.02 0-2.06.2-3.07.52l8.34-13L41.51 26c.12-1.77 0-3.42 1.08-4.56C43.68 20.29 46 20.4 46 20.4s-.27-1.64-1.42-2.73c-1.67-1.58-6.07-2.05-8.92.95-.66.69-1.2 1.53-1.66 2.42L30.57 6.08l-3.86 16.77c-1.18-1.27-2.42-2.31-2.49-3.86-.08-1.59 1.63-3.2 1.63-3.2s-1.41-.92-2.98-.83c-2.3.12-5.66 2.99-5.44 7.12.05.98.28 1.97.63 2.93L6.02 17.47l9.2 14.33c-2.23-.05-4.23.77-5.81-.36-1.29-.92-1.4-3.29-1.4-3.29s-1.69.56-2.6 1.84c-1.34 1.87-1.19 6.3 2.18 8.7 1.59 1.14 3.68 1.72 5.61 2.02v-.52s2.68-.29 5.25-.41c.03-.29.07-.6.11-.88-2.75.26-6.78.23-9.04-1.39C6.58 35.41 7 32.57 7 32.57s.42.74 1.15 1.26c3.34 2.38 6.53-.78 9.61 1.42.65.47 1.11 1 1.4 1.42.26-.69.57-1.35.95-1.98l-7.36-10.1 9.82 7.14c.5-.43 1.04-.83 1.6-1.18-1-.91-4.4-4.91-4.4-7.92 0-3.61 2.31-4.69 2.31-4.69s-.31.79-.27 1.68c.22 4.1 4.59 4.34 4.79 8.13.03.66-.05 1.25-.17 1.71.67-.24 1.37-.42 2.08-.54l2.04-12.9 2.04 12.9c.66.11 1.3.27 1.92.49-.05-1.84.36-5.98 2.58-8.46 2.25-2.52 4.98-1.64 4.98-1.64s-.78.31-1.4.96c-2.82 2.97.1 6.49-2.5 9.23-.43.46-.89.79-1.29 1.02.6.36 1.16.77 1.68 1.22l9.82-7.14-7.36 10.1c.31.53.6 1.09.82 1.68 1.42-1.48 4.13-3.77 7.34-3.77 3.61 0 4.94 2.65 4.94 2.65s-.77-.36-1.66-.36c-4.1 0-4.95 4.37-8.73 4.37-.41 0-.79-.04-1.13-.12.03.21.02.42.04.64 1.87.09 3.79.26 4.71.36 1.97-1.25 3.22-3.22 5.22-3.22 1.59 0 3.06 1.87 3.06 1.87l.02-.03zm-7.7 4.7h2.9v17.02c3.47-5.12 5.81-10.53 5.81-15.57v-3.53h-8.71v2.08zM4.53 44.91c0 5.05 2.34 10.44 5.81 15.57V43.46h2.9v-2.08H4.53v3.53z" fill="#ffe320"/><path d="M30.6 42.7s.63-.64 1.99-1.32c1.55-.78 4.07-1.61 7.75-1.67-.57-4.88-4.71-8.67-9.75-8.67s-9.18 3.79-9.75 8.67c3.68.05 6.2.9 7.75 1.67 1.38.69 1.99 1.32 1.99 1.32h.02zm0 31.51s-2.15-2.65-5.55-4.97h-7.6c4.38 4.58 9.16 8.55 13.14 11.25 3.99-2.71 8.77-6.66 13.14-11.25h-7.6c-3.4 2.32-5.54 4.97-5.54 4.97h-.01z" fill="#ffe320"/><path d="M34.32 48.26c-2.62 0-3.72 2.12-3.72 2.12s-1.09-2.12-3.73-2.12-3.58 2.71-3.58 3.88c0 3.81 7.3 7.97 7.3 9.07 0-1.09 7.3-5.25 7.3-9.07 0-1.17-.95-3.88-3.58-3.88h-.01z" fill="#f0493e"/><path d="M0 44.91c0 16.01 19.07 33.92 30.6 40.96 11.53-7.03 30.6-24.93 30.6-40.96V1.54H0v43.37zM1.69 3.24H59.5v41.67c0 14.38-16.61 31.15-28.91 38.95-12.29-7.8-28.9-24.57-28.9-38.95V3.24z" fill="#562100"/><path d="M30.6 81.85c11.59-7.67 27.21-23.71 27.21-36.93V4.93H3.39v39.98c0 13.22 15.6 29.26 27.21 36.93zm14.37-13.92H38.3c2.44-1.31 5.33-2.21 8.44-2.03-.57.68-1.16 1.37-1.76 2.03h-.01zm-14.75-5.17v8.52c-2.72-2.7-8.38-7.29-15.26-7.13v-22.4c1.48-.13 3.75-.3 5.5-.3 6.28 0 8.9 2.48 8.92 2.5 0 0 .72.76.72 3.47h1.01c0-2.71.72-3.47.72-3.47.02-.02 2.63-2.5 8.92-2.5 1.76 0 4.03.17 5.5.3v22.4c-6.88-.16-12.55 4.44-15.26 7.13v-8.52h-.77zm-9.36-23.03c.57-4.88 4.71-8.67 9.75-8.67s9.18 3.79 9.75 8.67c-3.68.05-6.2.9-7.75 1.67-1.37.69-1.99 1.32-1.99 1.32s-.63-.64-1.99-1.32c-1.55-.78-4.07-1.61-7.75-1.67h-.02zm28.7 22.64c-.51.69-1.05 1.37-1.59 2.04v-19.6h1.59v17.57zm7.12-17.44c0 5.05-2.34 10.44-5.81 15.57V43.48h-2.9V41.4h8.71v3.53zM5.44 29.97c.92-1.28 2.6-1.84 2.6-1.84s.1 2.37 1.4 3.29c1.57 1.13 3.58.3 5.81.36l-9.2-14.33 12.04 7.54c-.35-.96-.57-1.95-.63-2.93-.22-4.13 3.14-7.01 5.44-7.12 1.57-.08 2.98.83 2.98.83s-1.7 1.61-1.63 3.2c.08 1.55 1.31 2.59 2.49 3.86L30.6 6.06l3.43 14.96c.46-.89 1-1.72 1.66-2.42 2.85-3 7.24-2.55 8.92-.95 1.14 1.08 1.42 2.73 1.42 2.73s-2.32-.12-3.41 1.04c-1.09 1.15-.96 2.8-1.08 4.56l13.63-8.54-8.34 13c1.01-.31 2.05-.52 3.07-.52 4.14 0 6.84 3.5 6.84 5.81 0 1.57-1.04 3.01-1.04 3.01s-1.46-1.87-3.06-1.87c-2 0-3.25 1.97-5.22 3.22-.92-.09-2.84-.27-4.71-.36-.02-.22-.02-.43-.04-.64.34.07.72.12 1.13.12 3.78 0 4.64-4.37 8.73-4.37.89 0 1.66.36 1.66.36s-1.33-2.65-4.94-2.65c-3.21 0-5.92 2.29-7.34 3.77-.23-.59-.51-1.15-.82-1.68l7.36-10.1-9.82 7.14c-.52-.45-1.08-.87-1.68-1.22.4-.24.87-.56 1.29-1.02 2.6-2.74-.31-6.25 2.5-9.23.61-.64 1.4-.96 1.4-.96s-2.72-.88-4.98 1.64c-2.22 2.48-2.63 6.62-2.58 8.46-.62-.22-1.26-.38-1.92-.49l-2.04-12.9-2.04 12.9c-.72.12-1.41.3-2.08.54.12-.47.21-1.05.17-1.71-.2-3.78-4.58-4.03-4.79-8.13-.04-.89.27-1.68.27-1.68s-2.31 1.09-2.31 4.69c0 3.01 3.4 7.01 4.4 7.92-.56.35-1.11.75-1.6 1.18l-9.82-7.14 7.36 10.1c-.38.63-.69 1.29-.95 1.98-.29-.42-.75-.95-1.4-1.42-3.08-2.2-6.27.96-9.61-1.42a4.427 4.427 0 01-1.15-1.26s-.4 2.84 2.52 4.94c2.25 1.61 6.28 1.65 9.04 1.39-.04.29-.09.59-.11.88-2.58.12-5.25.41-5.25.41v.52c-1.94-.29-4.03-.88-5.61-2.02-3.37-2.41-3.52-6.83-2.18-8.7l-.02.02zm4.9 30.52c-3.47-5.12-5.81-10.53-5.81-15.57v-3.53h8.71v2.08h-2.9v17.02zm1.31-15.71h1.59v19.6c-.54-.67-1.08-1.34-1.59-2.04V44.77zm2.83 21.12c3.11-.2 6 .72 8.44 2.03h-6.67c-.61-.66-1.18-1.34-1.77-2.03zm10.59 3.34c3.4 2.32 5.55 4.97 5.55 4.97s2.13-2.65 5.54-4.97h7.6c-4.38 4.58-9.16 8.55-13.14 11.25-3.99-2.71-8.77-6.66-13.14-11.25h7.61z" fill="#562100"/><path d="M94.32 52.25c2.21.55 4.5.63 6.63.63 6.47 0 16.1-.24 17.44-1.5.79-.72 1.27-3.39 1.66-5.05l.94-3.94h2.52c-.48 4.34-1.03 9.63-1.66 13.58-3 .08-8.05.24-13.1.24h-2.45c-7.11-.08-12.32-.24-17.21-.24-2.69 0-4.66.15-6.71.24V54.4l2.45-1.27c1.34-.72 1.97-2.52 1.97-4.66V11.04c0-3-.16-5.05-.72-5.92-.48-.79-1.42-1.11-3.32-1.18l-3.79-.24V1.33c4.11.16 7.81.24 11.68.24 3.63 0 7.35-.08 11.44-.24v2.36l-3.79.24c-1.9.08-2.84.39-3.32 1.18-.55.87-.72 2.93-.72 5.92v41.22h.02zm40.65-41.21c0-3-.16-5.05-.72-5.92-.48-.79-1.42-1.11-3.32-1.18l-3.79-.24V1.33c2.21 0 4.42.08 6.63.16 2.21 0 4.5.08 6.71.08 6.87 0 14.13-.24 18.63-.24 3.55 0 7.11.08 10.19.24-.87 3.48-1.27 7.97-1.27 11.99h-2.76V8.44c0-1.03-.08-1.9-.72-2.13-4.18-1.58-10.42-1.66-15.47-1.66-2.13 0-4.42.08-6.63.63v21.07c2.52.16 5.36.24 9.15.24 4.81 0 7.5-.31 8.37-.87.39-.31.55-1.03.63-2.05l.39-4.11h2.37c-.08 3.24-.24 6.24-.24 9.16s.16 5.92.24 8.77h-2.37l-.39-4.66c-.08-1.03-.24-1.73-.63-1.97-.87-.63-3.56-.94-8.37-.94-3.79 0-6.71 0-9.15.24v22.1c2.21.55 4.5.63 6.63.63 6.47 0 14.53-.24 15.95-1.03 1.18-.63 2.21-4.11 2.76-8.84h2.76c-.79 3.79-1.27 8.68-1.27 12.95-3 .08-8.05.24-13.1.24h-2.45c-6.08-.08-12.32-.24-17.21-.24-3 0-5.6.15-8.45.24v-2.36l2.84-.24c1.9-.16 2.84-.39 3.32-1.18.55-.87.72-2.93.72-5.92V11.04h.02zm95.76 35.44c0 3 .15 5.05.7 5.92.48.79 1.42 1.11 3.32 1.18l3.79.24v2.36c-4.11-.15-7.81-.24-11.44-.24-3.87 0-7.57.08-11.68.24v-2.36l3.79-.24c1.9-.08 2.84-.39 3.32-1.18.55-.87.71-2.93.71-5.92V28.89c-.94-.08-3.08-.16-6.56-.16h-18.47c-3.48 0-5.6.08-6.56.16V46.5c0 3 .16 5.05.72 5.92.48.79 1.42 1.11 3.32 1.18l3.79.24v2.36c-4.11-.15-7.81-.24-11.44-.24-3.87 0-7.57.08-11.68.24v-2.36l3.79-.24c1.9-.08 2.84-.39 3.32-1.18.55-.87.72-2.93.72-5.92V11.04c0-3-.16-5.05-.72-5.92-.48-.79-1.42-1.11-3.32-1.18l-3.79-.24V1.33c4.11.16 7.81.24 11.68.24 3.63 0 7.35-.08 11.44-.24v2.36l-3.79.24c-1.9.08-2.84.39-3.32 1.18-.55.87-.72 2.93-.72 5.92v14.05c.94.08 3.08.16 6.56.16h18.47c3.48 0 5.6-.08 6.56-.16V11.04c0-3-.16-5.05-.71-5.92-.48-.79-1.42-1.11-3.32-1.18l-3.79-.24V1.33c4.11.16 7.81.24 11.68.24 3.63 0 7.35-.08 11.44-.24v2.36l-3.79.24c-1.9.08-2.84.39-3.32 1.18-.55.87-.7 2.93-.7 5.92v35.45zm29.99 0c0 3 .16 5.05.72 5.92.48.79 1.42 1.11 3.32 1.18l3.79.24v2.36c-4.11-.15-7.81-.24-11.44-.24-3.87 0-7.57.08-11.68.24v-2.36l3.79-.24c1.9-.08 2.84-.39 3.32-1.18.55-.87.72-2.93.72-5.92V11.04c0-3-.16-5.05-.72-5.92-.48-.79-1.42-1.11-3.32-1.18l-3.79-.24V1.33c4.11.16 7.81.24 11.68.24 3.63 0 7.35-.08 11.44-.24v2.36l-3.79.24c-1.9.08-2.84.39-3.32 1.18-.55.87-.72 2.93-.72 5.92v35.45zm58.48-6.23c0-1.82-.63-2.6-2.69-2.76l-6.56-.55v-2.37c3.24.08 6.47.16 9.63.16s6.48-.08 9.71-.16l.31 1.97-2.29.79c-.87.31-.87.63-.87 2.93v13.26c-6.79 1.97-15.31 4.03-20.76 4.03-17.61 0-31.81-9.16-31.81-28.97 0-17.37 14.29-28.57 33.32-28.57 9.78 0 15.95 2.21 19.58 3.24-.94 3.71-1.58 7.9-1.58 11.99h-2.45v-4.18c0-3.71-2.84-4.97-6.56-6.32-2.52-.87-5.91-1.42-11.05-1.42-15 0-22.82 9.87-22.82 23.92 0 15.71 9.16 27 25.42 27 6.08 0 10.58-1.34 11.05-2.76.31-.87.39-1.27.39-3.24v-7.97h.01zm69.55 6.23c0 3 .15 5.05.71 5.92.48.79 1.42 1.11 3.32 1.18l3.79.24v2.36c-4.11-.15-7.81-.24-11.44-.24-3.87 0-7.57.08-11.68.24v-2.36l3.79-.24c1.9-.08 2.84-.39 3.32-1.18.55-.87.72-2.93.72-5.92V28.89c-.94-.08-3.08-.16-6.56-.16h-18.47c-3.48 0-5.6.08-6.56.16V46.5c0 3 .16 5.05.72 5.92.48.79 1.42 1.11 3.32 1.18l3.79.24v2.36c-4.11-.15-7.81-.24-11.44-.24-3.87 0-7.57.08-11.68.24v-2.36l3.79-.24c1.9-.08 2.84-.39 3.32-1.18.55-.87.72-2.93.72-5.92V11.04c0-3-.16-5.05-.72-5.92-.48-.79-1.42-1.11-3.32-1.18l-3.79-.24V1.33c4.11.16 7.81.24 11.68.24 3.63 0 7.35-.08 11.44-.24v2.36l-3.79.24c-1.9.08-2.84.39-3.32 1.18-.55.87-.72 2.93-.72 5.92v14.05c.95.08 3.08.16 6.56.16h18.47c3.48 0 5.6-.08 6.56-.16V11.04c0-3-.16-5.05-.72-5.92-.48-.79-1.42-1.11-3.32-1.18l-3.79-.24V1.33c4.11.16 7.81.24 11.68.24 3.63 0 7.35-.08 11.44-.24v2.36l-3.79.24c-1.9.08-2.84.39-3.32 1.18-.55.87-.71 2.93-.71 5.92v35.45zM84.44 68.9c0-.88-.04-1.47-.21-1.73-.14-.23-.41-.33-.96-.35l-1.11-.06v-.69c1.2.04 2.29.06 3.41.06 1.06 0 2.15-.02 3.35-.06v.69l-1.11.06c-.55.02-.83.12-.96.35-.16.25-.21.86-.21 1.73v7.93c0 3.27 1.7 4.21 4.75 4.21 2.49 0 4.75-.94 4.75-4.77v-7.38c0-.88-.04-1.47-.21-1.73-.14-.23-.41-.3-.96-.35l-1.02-.06v-.69c.92.02 1.84.06 2.68.06.92 0 1.76-.04 2.76-.06v.69l-1.02.06c-.55.04-.83.12-.96.35-.16.25-.21.86-.21 1.73v6.66c0 4.93-1.86 6.91-6.52 6.91-3.92 0-6.23-1.18-6.23-5.4v-8.18h-.01zm37.39 0c0-.88-.04-1.47-.21-1.73-.14-.23-.41-.3-.96-.35l-1.02-.06v-.69c1.02.02 1.94.06 2.76.06.41 0 .83-.04 1.25-.06l11.02 13.6h.07V68.9c0-.88-.04-1.47-.21-1.73-.14-.23-.41-.3-.96-.35l-1.02-.06v-.69c.92.02 1.84.06 2.68.06.92 0 1.76-.04 2.76-.06v.69l-1.02.06c-.55.04-.83.12-.96.35-.16.25-.21.86-.21 1.73v12.73c0 .27.04.57.07.86l-2.07-.37-10.86-13.49h-.04v10.63c0 .88.04 1.47.21 1.73.14.23.41.3.96.35l1.02.07v.69c-1.02-.02-1.84-.06-2.76-.06-.83 0-1.76.04-2.68.06v-.69l1.02-.07c.55-.04.83-.12.96-.35.16-.25.21-.86.21-1.73V68.91zm40.98 10.35c0 .88.04 1.47.21 1.73.14.23.41.33.96.35l1.11.07v.69c-1.2-.04-2.29-.06-3.35-.06-1.13 0-2.21.02-3.41.06v-.69l1.11-.07c.55-.02.83-.12.96-.35.16-.25.21-.86.21-1.73V68.9c0-.88-.04-1.47-.21-1.73-.14-.23-.41-.33-.96-.35l-1.11-.06v-.69c1.2.04 2.29.06 3.41.06 1.06 0 2.15-.02 3.35-.06v.69l-1.11.06c-.55.02-.83.12-.96.35-.16.25-.21.86-.21 1.73v10.35zm31.1-.03l4.21-10.9c.14-.35.21-.62.21-.83 0-.53-.37-.65-.81-.67l-1.2-.06v-.69c.83.02 1.64.06 2.49.06s1.66-.04 2.49-.06v.69l-.69.06c-.49.04-.78.55-1.25 1.66l-4.01 9.71c-.55 1.31-1.06 2.63-1.47 4.03h-1.15c-.37-1.37-.88-2.68-1.33-3.8l-4.33-10.65c-.3-.74-.62-.92-1.02-.94l-.84-.06v-.69c1.02.02 2.03.06 3.07.06s2.05-.04 3.07-.06v.69l-1.29.06c-.37.02-.74.12-.74.47 0 .06 0 .16.04.25l4.54 11.69h.01zM223.9 68.9c0-.88-.04-1.47-.21-1.73-.14-.23-.41-.33-.96-.35l-1.11-.06v-.69c.65 0 1.29.02 1.94.04.65 0 1.31.02 1.96.02 2.01 0 4.13-.06 5.44-.06 1.04 0 2.08.02 2.98.06-.25 1.02-.37 2.33-.37 3.5h-.8v-1.5c0-.3-.02-.55-.21-.62-1.22-.47-3.04-.49-4.52-.49-.62 0-1.29.02-1.94.18v6.15c.74.04 1.57.07 2.68.07 1.41 0 2.19-.1 2.45-.25.12-.1.16-.3.18-.6l.12-1.2h.69c-.02.94-.07 1.82-.07 2.68s.04 1.73.07 2.56h-.69l-.12-1.37c-.02-.3-.07-.51-.18-.57-.25-.18-1.04-.27-2.45-.27-1.11 0-1.96 0-2.68.06v6.46c.65.16 1.31.18 1.94.18 1.89 0 4.24-.07 4.66-.3.35-.18.65-1.2.81-2.58h.8c-.23 1.11-.37 2.54-.37 3.78-.88.02-2.35.06-3.83.06h-.71c-1.78-.02-3.6-.06-5.03-.06-.88 0-1.64.04-2.47.06v-.69l.83-.06c.55-.04.84-.12.96-.35.16-.25.21-.86.21-1.73V68.88h-.02zm35.7 10.35c0 .88.04 1.47.21 1.73.14.23.41.33.96.35l1.11.07v.69c-1.2-.04-2.29-.06-3.35-.06-1.13 0-2.21.02-3.41.06v-.69l1.11-.07c.55-.02.83-.12.96-.35.16-.25.21-.86.21-1.73V68.9c0-.88-.04-1.47-.21-1.73-.14-.23-.41-.3-.96-.35l-.94-.06v-.69c1.22.02 2.56.06 3.92.06s2.7-.04 4.03-.06h.21c3.53 0 4.45 1.82 4.45 3.46 0 2.51-2.27 4.01-4.5 4.45l5.23 6.83c.35.46.86.55 1.41.6v.69c-.6-.02-1.13-.06-1.66-.06s-1.04.04-1.57.06c-.3-.43-.65-.83-.94-1.25l-4.25-5.7c-.37-.51-.8-.94-1.2-1.43l.14-.27c.21.02.39.02.62.02.47 0 .92-.04 1.41-.12 1.62-.27 3-1.52 3-3.23 0-2.49-1.84-3.19-3.64-3.19-1.04 0-1.7.12-2.35.27v12.04h.01zm39.42-9.37l-.14-1.31c-.07-.62-.16-.86-1.02-1.39-.65-.39-1.61-.55-2.51-.55-1.61 0-3.41 1.08-3.41 3.37 0 1.57.92 2.54 3.8 2.86 3.25.35 5.3 1.15 5.3 3.78 0 3.94-3.53 5.83-6.97 5.83-1.61 0-3.19-.51-3.94-.88.14-.88.16-1.8.16-2.65v-.88h.74l.18 1.55c.12.96 1.94 1.84 3.76 1.84 2.08 0 4.13-1.27 4.13-3.55s-1.7-2.82-4.05-3.09c-3.62-.41-5.05-1.55-5.05-3.94 0-3.58 3.13-5.21 5.9-5.21 1.84 0 3.23.6 4.17.96-.23 1.17-.32 2.17-.32 3.25h-.73zm26.95 9.37c0 .88.04 1.47.21 1.73.14.23.41.33.96.35l1.1.07v.69c-1.2-.04-2.29-.06-3.35-.06-1.13 0-2.21.02-3.41.06v-.69l1.11-.07c.55-.02.83-.12.96-.35.16-.25.21-.86.21-1.73V68.9c0-.88-.04-1.47-.21-1.73-.14-.23-.41-.33-.96-.35l-1.11-.06v-.69c1.2.04 2.29.06 3.41.06 1.06 0 2.15-.02 3.35-.06v.69l-1.1.06c-.55.02-.84.12-.96.35-.16.25-.21.86-.21 1.73v10.35zm28.19-9.76c0-.88-.02-1.61-.1-2.31h-3.58c-.69 0-.88.21-.92.76l-.09 1.82h-.72c0-1.25-.04-2.51-.16-3.72 1.66 0 3.32.06 4.98.06h3.35c.83 0 1.66-.02 2.49-.04.84 0 1.66-.02 2.49-.02-.12 1.2-.16 2.47-.16 3.72h-.71l-.09-1.82c-.04-.55-.23-.76-.92-.76h-3.58c-.06.69-.1 1.43-.1 2.31v9.75c0 .88.04 1.47.21 1.73.14.23.41.33.96.35l1.11.07v.69c-1.2-.04-2.29-.06-3.35-.06-1.13 0-2.21.02-3.41.06v-.69l1.11-.07c.55-.02.83-.12.96-.35.16-.25.21-.86.21-1.73v-9.75h.01zm35.96 4.66l2.37-3.76c.92-1.45 1.73-2.9 2.49-4.38h1.84v.35c-1.94 2.23-4.72 6.13-5.67 8.18-.27.6-.33 1.18-.33 1.73v2.98c0 .88.04 1.47.21 1.73.14.23.41.33.96.35l1.11.07v.69c-1.2-.04-2.29-.06-3.35-.06-1.13 0-2.21.02-3.41.06v-.69l1.1-.07c.55-.02.84-.12.96-.35.16-.25.21-.86.21-1.73v-3.27c0-.37-.06-.69-.21-.92l-2.86-4.98c-1.2-2.07-2.37-2.93-2.95-3l-.67-.06v-.67l2.65-.55s.07-.02.12-.02c.41 0 .72.43 1.08.88.39.49.72.94 1.02 1.5l3.29 6.01h.01zm67.29-52.51V2.85h3.29v15.88h8.28v2.9h-11.57zm14.11-17.7c0-1.02.85-1.83 1.83-1.83s1.83.81 1.83 1.83-.81 1.83-1.83 1.83-1.83-.81-1.83-1.83zm.37 17.69V8.03h2.96v13.61h-2.96zm6.79.01V2.85h2.96v7.08c1.07-1.44 2.64-2.22 4.37-2.22 3.49 0 6.02 2.76 6.02 7.15s-2.57 7.13-6.02 7.13c-1.78 0-3.33-.85-4.37-2.2v1.86h-2.96zm2.96-4.1c.65 1.02 2.11 1.8 3.49 1.8 2.36 0 3.86-1.86 3.86-4.51s-1.5-4.54-3.86-4.54c-1.38 0-2.85.85-3.49 1.86v5.38zm13.4 4.1V8.03H498v2c1.02-1.3 2.64-2.31 4.42-2.31v2.93c-.25-.05-.56-.09-.93-.09-1.23 0-2.9.85-3.49 1.8v9.26h-2.96zm18.09 0v-1.46c-1.02 1.16-2.59 1.8-4.4 1.8-2.22 0-4.73-1.5-4.73-4.51s2.5-4.42 4.73-4.42c1.83 0 3.41.6 4.4 1.74v-2.03c0-1.58-1.3-2.54-3.19-2.54-1.52 0-2.85.56-4.03 1.72l-1.21-2.06c1.58-1.5 3.55-2.2 5.72-2.2 3.01 0 5.67 1.27 5.67 4.93v9.01h-2.96zm0-5.16c-.67-.93-1.94-1.41-3.24-1.41-1.66 0-2.9.95-2.9 2.45s1.23 2.43 2.9 2.43c1.3 0 2.57-.48 3.24-1.41v-2.06zm6.79 5.16V8.03h2.96v2c1.02-1.3 2.64-2.31 4.42-2.31v2.93c-.25-.05-.56-.09-.93-.09-1.24 0-2.9.85-3.49 1.8v9.26h-2.96zm9.63 2.67c.31.14.79.23 1.13.23.93 0 1.55-.28 1.94-1.18l.67-1.55-5.58-13.77h3.15l3.98 10.2 3.98-10.2h3.19l-6.57 16.06c-.93 2.31-2.57 3.04-4.68 3.07-.42 0-1.23-.09-1.66-.2l.45-2.64zm37.27-2.67h-3.86c-.45-.42-1.04-1.02-1.66-1.64-1.41 1.18-3.13 1.97-5.27 1.97-3.35 0-6.06-1.78-6.06-5.35 0-2.9 1.94-4.37 4.08-5.49-.79-1.41-1.32-2.82-1.32-4.12 0-2.54 2.17-4.45 5.1-4.45 2.57 0 4.65 1.41 4.65 3.86 0 2.85-2.34 4.05-4.68 5.21.62.88 1.3 1.69 1.83 2.31.62.76 1.23 1.46 1.86 2.17.9-1.35 1.52-2.85 1.86-3.91l2.43 1.09c-.65 1.5-1.5 3.15-2.59 4.65 1.13 1.18 2.31 2.39 3.63 3.69h-.02zm-7.18-3.34c-.93-1.02-1.8-2-2.31-2.59a39.92 39.92 0 01-2.08-2.71c-1.21.81-2.11 1.8-2.11 3.38 0 2.06 1.55 3.24 3.27 3.24 1.21 0 2.31-.53 3.24-1.32h-.01zm-2.99-8.4c1.78-.85 3.21-1.74 3.21-3.33 0-1.16-.81-1.8-1.89-1.8-1.27 0-2.25.95-2.25 2.31 0 .85.39 1.83.93 2.82zm-94.76 42.07V36.09h-5.69v-2.9h14.68v2.9h-5.69v15.88h-3.3zm14.79-13.94c4.08 0 6.71 3.13 6.71 7.41v.7h-10.51c.23 2.06 1.78 3.75 4.34 3.75 1.32 0 2.9-.53 3.86-1.5l1.35 1.94c-1.35 1.3-3.35 1.97-5.53 1.97-4.08 0-7.13-2.85-7.13-7.15 0-3.94 2.87-7.13 6.9-7.13h.01zm-3.84 6.02h7.66c-.05-1.6-1.16-3.61-3.84-3.61-2.54 0-3.69 1.94-3.84 3.61h.01zm19.67-6.02c2.64 0 4.26 1.13 5.21 2.43l-1.94 1.8c-.76-1.07-1.8-1.6-3.13-1.6-2.48 0-4.12 1.86-4.12 4.51s1.64 4.54 4.12 4.54c1.32 0 2.36-.56 3.13-1.6l1.94 1.8c-.95 1.3-2.57 2.43-5.21 2.43-4.14 0-7.04-3.01-7.04-7.15s2.9-7.13 7.04-7.13zm17.02 13.94v-8.56c0-2.11-1.09-2.76-2.76-2.76-1.5 0-2.78.9-3.49 1.83v9.49h-2.96V33.18h2.96v7.04c.9-1.07 2.68-2.2 4.82-2.2 2.93 0 4.4 1.52 4.4 4.31v9.63h-2.97zm15.97 0v-8.51c0-2.11-1.07-2.82-2.73-2.82-1.52 0-2.82.9-3.49 1.83v9.49h-2.96V38.35h2.96v1.86c.9-1.07 2.64-2.2 4.79-2.2 2.93 0 4.4 1.58 4.4 4.37v9.58h-2.97zm5.94-6.81c0-3.89 2.68-7.13 6.99-7.13s7.01 3.24 7.01 7.13-2.64 7.15-7.01 7.15-6.99-3.24-6.99-7.15zm10.93 0c0-2.39-1.41-4.51-3.94-4.51s-3.91 2.11-3.91 4.51 1.41 4.54 3.91 4.54 3.94-2.11 3.94-4.54zm6.06 6.81V33.18h2.96v18.79h-2.96zm5.94-6.81c0-3.89 2.68-7.13 6.99-7.13s7.01 3.24 7.01 7.13-2.64 7.15-7.01 7.15-6.99-3.24-6.99-7.15zm10.93 0c0-2.39-1.41-4.51-3.94-4.51s-3.91 2.11-3.91 4.51 1.41 4.54 3.91 4.54 3.94-2.11 3.94-4.54zm7.27 8.17c1.09 1.27 2.5 1.74 4.31 1.74 1.94 0 4.03-.9 4.03-3.69v-1.64c-1.04 1.35-2.59 2.25-4.37 2.25-3.47 0-6.02-2.5-6.02-6.99s2.54-6.99 6.02-6.99c1.72 0 3.27.79 4.37 2.22v-1.89h2.96v12.9c0 4.9-3.63 6.23-6.99 6.23-2.31 0-4.03-.51-5.69-2.03l1.38-2.15zm8.34-10.83c-.65-1.02-2.11-1.83-3.49-1.83-2.34 0-3.84 1.74-3.84 4.37s1.5 4.37 3.84 4.37c1.38 0 2.85-.81 3.49-1.83v-5.07zm6.64 12.15c.32.14.79.23 1.13.23.93 0 1.55-.28 1.94-1.18l.67-1.55-5.58-13.77h3.15l3.98 10.2 3.98-10.2h3.19l-6.57 16.06c-.93 2.31-2.57 3.04-4.68 3.07-.42 0-1.23-.09-1.66-.19l.45-2.64zM458.03 77.13c1.3 1.38 3.33 2.59 5.95 2.59s3.77-1.32 3.77-2.57c0-1.69-2-2.2-4.28-2.78-3.07-.76-6.68-1.66-6.68-5.63 0-3.1 2.73-5.49 6.85-5.49 2.93 0 5.3.93 7.04 2.62l-1.89 2.45c-1.46-1.46-3.47-2.15-5.44-2.15s-3.18.93-3.18 2.34 1.92 1.94 4.14 2.5c3.1.79 6.79 1.74 6.79 5.83 0 3.13-2.2 5.81-7.27 5.81-3.47 0-5.97-1.21-7.64-2.99l1.83-2.54zm22.08-8.76c4.08 0 6.71 3.13 6.71 7.41v.7h-10.51c.23 2.06 1.78 3.75 4.33 3.75 1.32 0 2.9-.53 3.86-1.5l1.35 1.94c-1.35 1.3-3.35 1.97-5.53 1.97-4.08 0-7.13-2.85-7.13-7.15 0-3.94 2.87-7.13 6.9-7.13h.01zm-3.84 6.02h7.66c-.05-1.6-1.16-3.61-3.84-3.61-2.54 0-3.69 1.94-3.84 3.61h.01zm13.48 7.92V68.7h2.96v2c1.02-1.3 2.64-2.31 4.42-2.31v2.93c-.25-.05-.56-.09-.93-.09-1.23 0-2.9.85-3.49 1.8v9.26h-2.96zm13.35 0l-5.55-13.61h3.15l3.98 10.2 3.98-10.2h3.19l-5.55 13.61h-3.2zm10.23-17.69c0-1.02.85-1.83 1.83-1.83s1.83.81 1.83 1.83-.81 1.83-1.83 1.83-1.83-.81-1.83-1.83zm.37 17.69V68.7h2.96v13.61h-2.96zm12.98-13.94c2.64 0 4.26 1.13 5.21 2.43l-1.94 1.8c-.76-1.07-1.8-1.6-3.13-1.6-2.48 0-4.12 1.86-4.12 4.51s1.64 4.54 4.12 4.54c1.32 0 2.36-.56 3.13-1.6l1.94 1.8c-.95 1.3-2.57 2.43-5.21 2.43-4.14 0-7.04-3.01-7.04-7.15s2.9-7.13 7.04-7.13zm13.86 0c4.09 0 6.71 3.13 6.71 7.41v.7h-10.51c.23 2.06 1.78 3.75 4.33 3.75 1.32 0 2.9-.53 3.86-1.5l1.35 1.94c-1.35 1.3-3.35 1.97-5.53 1.97-4.08 0-7.13-2.85-7.13-7.15 0-3.94 2.87-7.13 6.9-7.13h.01zm-3.84 6.02h7.66c-.05-1.6-1.16-3.61-3.84-3.61-2.54 0-3.69 1.94-3.84 3.61h.01zm13.64 4.01c.95.99 2.85 1.92 4.62 1.92s2.68-.65 2.68-1.66c0-1.18-1.44-1.6-3.1-1.97-2.34-.51-5.13-1.13-5.13-4.17 0-2.22 1.92-4.14 5.35-4.14 2.31 0 4.05.81 5.3 1.92l-1.23 2.08c-.81-.93-2.34-1.64-4.03-1.64-1.55 0-2.54.56-2.54 1.52 0 1.04 1.35 1.41 2.96 1.78 2.36.51 5.27 1.18 5.27 4.4 0 2.39-2 4.23-5.67 4.23-2.31 0-4.42-.74-5.83-2.11l1.35-2.15z" fill="#fff"/></svg>