<svg width="24" height="24" fill="none" xmlns="http://www.w3.org/2000/svg"><path d="M20.884 7.486c.014.197.014.394.014.59C20.898 14.082 16.328 21 7.975 21 5.402 21 3.011 20.255 1 18.961a9.41 9.41 0 001.097.056 9.097 9.097 0 005.639-1.94 4.55 4.55 0 01-4.247-3.15c.281.042.563.07.858.07.408 0 .816-.056 1.195-.155A4.543 4.543 0 011.9 9.384v-.056a4.575 4.575 0 002.053.577 4.539 4.539 0 01-2.025-3.783c0-.844.225-1.617.619-2.292a12.911 12.911 0 009.365 4.753 5.134 5.134 0 01-.112-1.04A4.54 4.54 0 0116.342 3a4.53 4.53 0 013.319 1.434 8.943 8.943 0 002.883-1.097 4.53 4.53 0 01-1.997 2.504 9.106 9.106 0 002.615-.703 9.763 9.763 0 01-2.278 2.348z" fill="#ffda40"/></svg>